REM DIRINDEX 1\2,1\3,1\4,1\6,1\5\7,1\5\8
REM DIRNAME cjc114,folder01,folder02,folder03,folder04,folder05,folder06,folder07
TITLE ""
FILE "DB4500_5th_5C_12.mp3" MP3
  TRACK 01 AUDIO
    TITLE "0:"
    INDEX 01 00:00:00
  TRACK 02 AUDIO
    TITLE "2:cjc114_3609"
    INDEX 01 00:00:03
  TRACK 03 AUDIO
    TITLE "0:"
    INDEX 01 00:01:15
  TRACK 04 AUDIO
    TITLE "3:cjc114_3610"
    INDEX 01 00:01:34
  TRACK 05 AUDIO
    TITLE "0:"
    INDEX 01 00:02:59
  TRACK 06 AUDIO
    TITLE "4:cjc114_3611"
    INDEX 01 00:03:06
  TRACK 07 AUDIO
    TITLE "0:"
    INDEX 01 00:06:00
  TRACK 08 AUDIO
    TITLE "2:cjc114_3612"
    INDEX 01 00:06:49
  TRACK 09 AUDIO
    TITLE "0:"
    INDEX 01 00:07:56
  TRACK 10 AUDIO
    TITLE "3:cjc114_3613"
    INDEX 01 00:08:05
  TRACK 11 AUDIO
    TITLE "0:"
    INDEX 01 00:09:22
  TRACK 12 AUDIO
    TITLE "4:cjc114_3614"
    INDEX 01 00:09:44
  TRACK 13 AUDIO
    TITLE "0:"
    INDEX 01 00:12:14
  TRACK 14 AUDIO
    TITLE "2:cjc114_3615"
    INDEX 01 00:12:61
  TRACK 15 AUDIO
    TITLE "0:"
    INDEX 01 00:14:02
  TRACK 16 AUDIO
    TITLE "3:cjc114_3616"
    INDEX 01 00:14:23
  TRACK 17 AUDIO
    TITLE "0:"
    INDEX 01 00:15:48
  TRACK 18 AUDIO
    TITLE "4:cjc114_3617"
    INDEX 01 00:15:72
  TRACK 19 AUDIO
    TITLE "0:"
    INDEX 01 00:19:65
  TRACK 20 AUDIO
    TITLE "2:cjc114_3618"
    INDEX 01 00:20:37
  TRACK 21 AUDIO
    TITLE "0:"
    INDEX 01 00:21:43
  TRACK 22 AUDIO
    TITLE "3:cjc114_3619"
    INDEX 01 00:21:66
  TRACK 23 AUDIO
    TITLE "0:"
    INDEX 01 00:23:40
  TRACK 24 AUDIO
    TITLE "4:cjc114_3620"
    INDEX 01 00:23:63
  TRACK 25 AUDIO
    TITLE "0:"
    INDEX 01 00:26:73
  TRACK 26 AUDIO
    TITLE "2:cjc114_3621"
    INDEX 01 00:27:43
  TRACK 27 AUDIO
    TITLE "0:"
    INDEX 01 00:28:55
  TRACK 28 AUDIO
    TITLE "3:cjc114_3622"
    INDEX 01 00:29:03
  TRACK 29 AUDIO
    TITLE "0:"
    INDEX 01 00:30:38
  TRACK 30 AUDIO
    TITLE "4:cjc114_3623"
    INDEX 01 00:30:57
  TRACK 31 AUDIO
    TITLE "0:"
    INDEX 01 00:34:38
  TRACK 32 AUDIO
    TITLE "2:cjc114_3624"
    INDEX 01 00:35:10
  TRACK 33 AUDIO
    TITLE "0:"
    INDEX 01 00:36:13
  TRACK 34 AUDIO
    TITLE "3:cjc114_3625"
    INDEX 01 00:36:36
  TRACK 35 AUDIO
    TITLE "0:"
    INDEX 01 00:38:35
  TRACK 36 AUDIO
    TITLE "4:cjc114_3626"
    INDEX 01 00:38:57
  TRACK 37 AUDIO
    TITLE "0:"
    INDEX 01 00:42:51
  TRACK 38 AUDIO
    TITLE "2:cjc114_3627"
    INDEX 01 00:43:21
  TRACK 39 AUDIO
    TITLE "0:"
    INDEX 01 00:44:24
  TRACK 40 AUDIO
    TITLE "3:cjc114_3628"
    INDEX 01 00:44:44
  TRACK 41 AUDIO
    TITLE "0:"
    INDEX 01 00:46:06
  TRACK 42 AUDIO
    TITLE "4:cjc114_3629"
    INDEX 01 00:46:27
  TRACK 43 AUDIO
    TITLE "0:"
    INDEX 01 00:49:53
  TRACK 44 AUDIO
    TITLE "2:cjc114_3630"
    INDEX 01 00:50:25
  TRACK 45 AUDIO
    TITLE "0:"
    INDEX 01 00:51:34
  TRACK 46 AUDIO
    TITLE "3:cjc114_3631"
    INDEX 01 00:51:58
  TRACK 47 AUDIO
    TITLE "0:"
    INDEX 01 00:52:61
  TRACK 48 AUDIO
    TITLE "4:cjc114_3632"
    INDEX 01 00:53:08
  TRACK 49 AUDIO
    TITLE "0:"
    INDEX 01 00:56:47
  TRACK 50 AUDIO
    TITLE "2:cjc114_3633"
    INDEX 01 00:57:19
  TRACK 51 AUDIO
    TITLE "0:"
    INDEX 01 00:58:18
  TRACK 52 AUDIO
    TITLE "3:cjc114_3634"
    INDEX 01 00:58:38
  TRACK 53 AUDIO
    TITLE "0:"
    INDEX 01 00:59:67
  TRACK 54 AUDIO
    TITLE "4:cjc114_3635"
    INDEX 01 01:00:12
  TRACK 55 AUDIO
    TITLE "0:"
    INDEX 01 01:03:67
  TRACK 56 AUDIO
    TITLE "2:cjc114_3636"
    INDEX 01 01:04:43
  TRACK 57 AUDIO
    TITLE "0:"
    INDEX 01 01:05:62
  TRACK 58 AUDIO
    TITLE "3:cjc114_3637"
    INDEX 01 01:06:00
  TRACK 59 AUDIO
    TITLE "0:"
    INDEX 01 01:07:27
  TRACK 60 AUDIO
    TITLE "4:cjc114_3638"
    INDEX 01 01:07:39
  TRACK 61 AUDIO
    TITLE "0:"
    INDEX 01 01:10:10
  TRACK 62 AUDIO
    TITLE "2:cjc114_3639"
    INDEX 01 01:10:49
  TRACK 63 AUDIO
    TITLE "0:"
    INDEX 01 01:11:47
  TRACK 64 AUDIO
    TITLE "3:cjc114_3640"
    INDEX 01 01:11:64
  TRACK 65 AUDIO
    TITLE "0:"
    INDEX 01 01:13:22
  TRACK 66 AUDIO
    TITLE "4:cjc114_3641"
    INDEX 01 01:13:38
  TRACK 67 AUDIO
    TITLE "0:"
    INDEX 01 01:16:60
  TRACK 68 AUDIO
    TITLE "2:cjc114_3642"
    INDEX 01 01:17:24
  TRACK 69 AUDIO
    TITLE "0:"
    INDEX 01 01:18:29
  TRACK 70 AUDIO
    TITLE "3:cjc114_3643"
    INDEX 01 01:18:43
  TRACK 71 AUDIO
    TITLE "0:"
    INDEX 01 01:19:38
  TRACK 72 AUDIO
    TITLE "4:cjc114_3644"
    INDEX 01 01:19:52
  TRACK 73 AUDIO
    TITLE "0:"
    INDEX 01 01:23:69
  TRACK 74 AUDIO
    TITLE "2:cjc114_3645"
    INDEX 01 01:24:32
  TRACK 75 AUDIO
    TITLE "0:"
    INDEX 01 01:25:41
  TRACK 76 AUDIO
    TITLE "3:cjc114_3646"
    INDEX 01 01:25:53
  TRACK 77 AUDIO
    TITLE "0:"
    INDEX 01 01:26:62
  TRACK 78 AUDIO
    TITLE "4:cjc114_3647"
    INDEX 01 01:27:03
  TRACK 79 AUDIO
    TITLE "0:"
    INDEX 01 01:31:02
